<?xml version="1.0" encoding="utf-8"?>
<svg version="1.1" xmlns:xlink="http://www.w3.org/1999/xlink" width="26px" height="24px" xmlns="http://www.w3.org/2000/svg">
  <g transform="matrix(1 0 0 1 -417 -6453 )">
    <path d="M 25.4829545454546 9.20454545454545  C 25.8276515151515 9.52272727272727  26 9.90909090909091  26 10.3636363636364  L 26 13.6363636363636  C 26 14.0909090909091  25.8276515151515 14.4772727272727  25.4829545454546 14.7954545454545  C 25.1382575757576 15.1136363636364  24.719696969697 15.2727272727273  24.2272727272727 15.2727272727273  L 16.5454545454546 15.2727272727273  L 16.5454545454546 22.3636363636364  C 16.5454545454546 22.8181818181818  16.3731060606061 23.2045454545454  16.0284090909091 23.5227272727273  C 15.6837121212121 23.8409090909091  15.2651515151515 24  14.7727272727273 24  L 11.2272727272727 24  C 10.7348484848485 24  10.3162878787879 23.8409090909091  9.97159090909093 23.5227272727273  C 9.62689393939394 23.2045454545454  9.45454545454544 22.8181818181818  9.45454545454544 22.3636363636364  L 9.45454545454544 15.2727272727273  L 1.77272727272731 15.2727272727273  C 1.280303030303 15.2727272727273  0.861742424242436 15.1136363636364  0.517045454545439 14.7954545454545  C 0.172348484848499 14.4772727272727  0 14.0909090909091  0 13.6363636363636  L 0 10.3636363636364  C 0 9.90909090909091  0.172348484848499 9.52272727272727  0.517045454545439 9.20454545454545  C 0.861742424242436 8.88636363636363  1.280303030303 8.72727272727273  1.77272727272731 8.72727272727273  L 9.45454545454544 8.72727272727273  L 9.45454545454544 1.63636363636364  C 9.45454545454544 1.18181818181818  9.62689393939394 0.795454545454543  9.97159090909093 0.477272727272726  C 10.3162878787879 0.159090909090909  10.7348484848485 0  11.2272727272727 0  L 14.7727272727273 0  C 15.2651515151515 0  15.6837121212121 0.159090909090909  16.0284090909091 0.477272727272726  C 16.3731060606061 0.795454545454543  16.5454545454546 1.18181818181818  16.5454545454546 1.63636363636364  L 16.5454545454546 8.72727272727273  L 24.2272727272727 8.72727272727273  C 24.719696969697 8.72727272727273  25.1382575757576 8.88636363636363  25.4829545454546 9.20454545454545  Z " fill-rule="nonzero" fill="#ffffff" stroke="none" transform="matrix(1 0 0 1 417 6453 )" />
  </g>
</svg>