<?xml version="1.0" encoding="utf-8"?>
<svg version="1.1" xmlns:xlink="http://www.w3.org/1999/xlink" width="26px" height="21px" xmlns="http://www.w3.org/2000/svg">
  <g transform="matrix(1 0 0 1 -186 -337 )">
    <path d="M 8.88176240936977 16.7985537190083  C 9.27328499721138 16.6683884297521  9.57538575943484 16.4393939393939  9.78806469604016 16.1115702479339  C 9.99107640825432 15.7837465564738  10.0442461424057 15.4511019283747  9.94757389849415 15.1136363636364  C 9.85090165458264 14.7761707988981  9.63338910578174 14.5351239669421  9.29503625209147 14.3904958677686  C 8.96635062279234 14.2555096418733  8.61349693251534 14.2506887052342  8.23647518126046 14.3760330578512  C 7.85945343000558 14.5013774104683  7.56943669827105 14.7231404958678  7.36642498605689 15.0413223140496  C 7.15374604945157 15.3691460055096  7.09090909090909 15.6993801652893  7.17791411042945 16.0320247933884  C 7.26491912994981 16.3646694214876  7.47276445435955 16.6081267217631  7.80145008365867 16.7623966942149  C 8.1301357129578 16.9166666666667  8.49023982152817 16.9287190082645  8.88176240936977 16.7985537190083  Z M 10.8321249302844 14.629132231405  C 10.9771332961517 14.5761019283747  11.0834727644544 14.486914600551  11.1511433351924 14.3615702479339  C 11.2284811303216 14.2362258953168  11.2453987730061 14.1084710743802  11.201896263246 13.978305785124  C 11.1583937534858 13.8481404958678  11.0738055400632 13.7589531680441  10.9481316229782 13.7107438016529  C 10.8127904815021 13.6625344352617  10.6750325339282 13.6649449035813  10.5348577802566 13.7179752066116  C 10.3946830265849 13.7710055096419  10.29076036438 13.8601928374656  10.2230897936419 13.9855371900826  C 10.0587469789924 14.284435261708  10.1215839375349 14.5013774104683  10.4116006692694 14.6363636363636  C 10.5469418107455 14.6845730027548  10.6871165644172 14.6821625344353  10.8321249302844 14.629132231405  Z M 13.638036809816 13.1539256198347  C 14.0972299683956 14.0265151515151  14.1093139988846 14.9449035812672  13.6742889012828 15.9090909090909  C 13.239263803681 16.8925619834711  12.4755530767801 17.6157024793388  11.38315672058 18.0785123966942  C 10.29076036438 18.5413223140496  9.20803123257111 18.599173553719  8.13496932515337 18.2520661157025  C 7.10057631530024 17.9242424242424  6.38761851645287 17.3143939393939  5.99609592861127 16.422520661157  C 5.60457334076966 15.5306473829201  5.6359918200409 14.6267217630854  6.09035136642499 13.7107438016529  C 6.54471091280907 12.8140495867769  7.27700316043874 12.1439393939394  8.287228109314 11.7004132231405  C 9.29745305818926 11.2568870523416  10.3149284253579 11.1652892561983  11.3396542108199 11.4256198347107  C 12.4127161182376 11.7052341597796  13.1788436512363 12.2813360881543  13.638036809816 13.1539256198347  Z M 16.2771890686001 17.4204545454545  C 17.6934374419037 16.2778925619835  18.3338910578174 15.0027548209366  18.1985499163413 13.595041322314  C 18.111544896821 12.6694214876033  17.6813534114148 11.8498622589532  16.9079754601227 11.1363636363636  C 16.1345975088306 10.4228650137741  15.1267893660532 9.89738292011019  13.8845510317903 9.5599173553719  C 12.6423126975274 9.22245179063361  11.315486149842 9.12121212121212  9.90407138873397 9.25619834710744  C 7.74828034950734 9.47796143250689  5.96226064324224 10.1601239669421  4.54601226993865 11.3026859504132  C 3.12976389663506 12.4452479338843  2.48931028072132 13.7203856749311  2.62465142219743 15.1280991735537  C 2.71165644171779 16.0537190082645  3.141847927124 16.8732782369146  3.91522587841606 17.5867768595041  C 4.68860382970812 18.3002754820937  5.69641197248559 18.8257575757576  6.93865030674847 19.1632231404959  C 8.18088864101134 19.5006887052342  9.50771518869678 19.6019283746556  10.9191299498048 19.4669421487603  C 13.0749209890314 19.2451790633609  14.8609406952965 18.5630165289256  16.2771890686001 17.4204545454545  Z M 22.1717791411043 11.9679752066116  C 22.5004647704034 12.474173553719  22.664807585053 13.0358126721763  22.664807585053 13.6528925619835  C 22.664807585053 14.3085399449036  22.4859639338167 14.9810606060606  22.1282766313441 15.6704545454545  C 21.7705893288715 16.3598484848485  21.2437255995538 17.0203168044077  20.547685443391 17.6518595041322  C 19.8516452872281 18.2834022038567  19.0371816322737 18.8498622589532  18.1042944785276 19.3512396694215  C 17.1714073247816 19.8526170798898  16.0790109685815 20.2527548209366  14.8271054099275 20.551652892562  C 13.5751998512735 20.8505509641873  12.2677077523703 21  10.9046291132181 21  C 9.54155047406581 21  8.21230712028258 20.8384986225895  6.91689905186838 20.5154958677686  C 5.62149098345417 20.1924931129477  4.45900725041829 19.7441460055096  3.42944785276074 19.1704545454545  C 2.39988845510318 18.5967630853994  1.570923963562 17.8688016528926  0.9425543781372 16.9865702479339  C 0.3141847927124 16.1043388429752  0 15.1425619834711  0 14.1012396694215  C 0 12.9924242424242  0.335936047592489 11.8112947658402  1.00780814277747 10.5578512396694  C 1.67968023796245 9.30440771349862  2.63431864658859 8.06060606060606  3.87172336865588 6.82644628099173  C 5.50548429076037 5.1969696969697  7.15616285554936 4.05922865013774  8.82375906302287 3.41322314049587  C 10.4913552704964 2.76721763085399  11.6828406767057 2.80096418732782  12.3982152816509 3.51446280991736  C 13.0265848670757 4.13154269972452  13.1232571109872 5.13911845730027  12.6882320133854 6.53719008264463  C 12.6495631158208 6.67217630853994  12.6447295036252 6.76859504132231  12.6737311767987 6.82644628099173  C 12.7027328499721 6.88429752066115  12.7510689719279 6.91804407713498  12.8187395426659 6.92768595041322  C 12.886410113404 6.93732782369146  12.9564974902398 6.9349173553719  13.0290016731735 6.92045454545455  C 13.1015058561071 6.90599173553719  13.1667596207474 6.88911845730027  13.2247629670943 6.8698347107438  L 13.3117679866146 6.84090909090909  C 14.6555121769846 6.27203856749311  15.8445807770961 5.98760330578513  16.8789737869492 5.98760330578513  C 17.9133667968024 5.98760330578513  18.6529094627254 6.28168044077135  19.0976017847184 6.8698347107438  C 19.5326268823201 7.47727272727272  19.5326268823201 8.33539944903581  19.0976017847184 9.44421487603306  C 19.078267335936 9.56955922865014  19.056516081056 9.66597796143251  19.0323480200781 9.73347107438017  C 19.0081799591002 9.80096418732782  19.0299312139803 9.8612258953168  19.0976017847184 9.91425619834711  C 19.1652723554564 9.96728650137741  19.2232757018033 10.0034435261708  19.2716118237591 10.0227272727273  C 19.3199479457148 10.0420110192837  19.4021193530396 10.0709366391185  19.5181260457334 10.1095041322314  C 20.069157836029 10.2830578512397  20.5670198921733 10.5096418732782  21.0117122141662 10.7892561983471  C 21.4564045361591 11.068870523416  21.8430935118052 11.4617768595041  22.1717791411043 11.9679752066116  Z M 20.1271611823759 3.68078512396694  C 20.6975274214538 3.85915977961432  21.1857222532069 4.17493112947658  21.5917456776352 4.62809917355372  C 21.9977691020636 5.08126721763085  22.2612009667224 5.60433884297521  22.3820412716118 6.19731404958678  C 22.5028815765012 6.79028925619834  22.47146309723 7.35674931129476  22.2877858337981 7.89669421487603  C 22.2104480386689 8.11845730027548  22.0678564788994 8.28236914600551  21.8600111544897 8.38842975206612  C 21.6521658300799 8.49449035812672  21.4370700873768 8.5137741046832  21.2147239263804 8.44628099173554  C 20.9923777653839 8.36914600550964  20.8280349507343 8.22692837465565  20.7216954824317 8.01962809917355  C 20.615356014129 7.81232782369146  20.5960215653467 7.59779614325069  20.6636921360848 7.37603305785124  C 20.8570366239078 6.76859504132231  20.741029931214 6.23347107438017  20.3156720580033 5.77066115702479  C 19.8903141847927 5.30785123966942  19.3731176798661 5.13911845730027  18.7640825432236 5.26446280991735  C 18.532069157836 5.31267217630854  18.3145566090351 5.27410468319559  18.111544896821 5.14876033057851  C 17.9085331846068 5.02341597796143  17.7876928797174 4.84504132231405  17.7490239821528 4.61363636363636  C 17.7006878601971 4.38223140495868  17.7393567577617 4.16769972451791  17.8650306748466 3.97004132231405  C 17.9907045919316 3.77238292011019  18.1695482431679 3.64944903581267  18.4015616285555 3.60123966942149  C 18.9815950920245 3.47589531680441  19.556794943298 3.50241046831956  20.1271611823759 3.68078512396694  Z M 21.2002230897936 0.325413223140495  C 22.3699572411229 0.68698347107438  23.3753485778026 1.33539944903581  24.2163970998327 2.27066115702479  C 25.0574456218628 3.19628099173554  25.601226993865 4.26893939393939  25.8477412158394 5.48863636363636  C 26.0942554378137 6.70833333333333  26.0290016731735 7.87258953168044  25.6519799219186 8.98140495867769  C 25.5649749023982 9.24173553719008  25.4006320877487 9.43457300275482  25.1589514779699 9.5599173553719  C 24.9172708681911 9.68526170798898  24.6659230340212 9.70454545454546  24.4049079754601 9.61776859504132  C 24.1438929168991 9.53099173553719  23.950548429076 9.36707988980716  23.8248745119911 9.12603305785124  C 23.6992005949061 8.88498622589532  23.6750325339282 8.63429752066116  23.7523703290574 8.37396694214876  C 24.0230526120097 7.58333333333333  24.0713887339654 6.75413223140496  23.8973786949247 5.88636363636364  C 23.723368655884 5.01859504132231  23.336679680238 4.2568870523416  22.7373117679866 3.60123966942149  C 22.1379438557353 2.93595041322314  21.4225692507901 2.47555096418733  20.5911879531511 2.22004132231405  C 19.7598066555122 1.96453168044077  18.9235917456776 1.92355371900826  18.0825432236475 2.09710743801653  C 17.8118609406953 2.15495867768595  17.5605131065254 2.10915977961432  17.3284997211378 1.95971074380165  C 17.0964863357501 1.81026170798898  16.9514779698829 1.60055096418732  16.893474623536 1.33057851239669  C 16.8354712771891 1.06060606060606  16.881390593047 0.812327823691457  17.0312325711099 0.585743801652894  C 17.1810745491727 0.359159779614325  17.3913366796802 0.216942148760331  17.6620189626325 0.159090909090909  C 18.851087562744 -0.0915977961432541  20.0304889384644 -0.0361570247933873  21.2002230897936 0.325413223140495  Z " fill-rule="nonzero" fill="#000000" stroke="none" transform="matrix(1 0 0 1 186 337 )" />
  </g>
</svg>