<?xml version="1.0" encoding="utf-8"?>
<svg version="1.1" xmlns:xlink="http://www.w3.org/1999/xlink" width="16px" height="13px" xmlns="http://www.w3.org/2000/svg">
  <g transform="matrix(1 0 0 1 -38 -1154 )">
    <path d="M 15.703125 0.428819444444435  C 15.9010416666667 0.714699074074053  16 1.05324074074073  16 1.44444444444444  C 16 1.83564814814816  15.9010416666667 2.1741898148148  15.703125 2.46006944444443  L 8.703125 12.5711805555556  C 8.50520833333334 12.8570601851852  8.27083333333334 13  8 13  C 7.72916666666667 13  7.49479166666667 12.8570601851852  7.296875 12.5711805555556  L 0.296875 2.46006944444443  C 0.0989583333333308 2.1741898148148  0 1.83564814814816  0 1.44444444444444  C 0 1.05324074074073  0.0989583333333308 0.714699074074053  0.296875 0.428819444444435  C 0.494791666666669 0.142939814814801  0.729166666666669 0  1 0  L 15 0  C 15.2708333333333 0  15.5052083333333 0.142939814814801  15.703125 0.428819444444435  Z " fill-rule="nonzero" fill="#949494" stroke="none" transform="matrix(1 0 0 1 38 1154 )" />
  </g>
</svg>