<?xml version="1.0" encoding="utf-8"?>
<svg version="1.1" xmlns:xlink="http://www.w3.org/1999/xlink" width="31px" height="18px" xmlns="http://www.w3.org/2000/svg">
  <g transform="matrix(1 0 0 1 -435 -1062 )">
    <path d="M 4 3.6  L 25.8333333333333 3.6  L 25.8333333333333 14.4  L 4 14.4  L 4 3.6  Z M 27.5555555555556 15.75  L 27.5555555555556 11.7  L 29.2777777777778 11.7  L 29.2777777777778 6.3  L 27.5555555555556 6.3  L 27.5555555555556 2.25  C 27.5555555555556 2.11875  27.5151909722222 2.0109375  27.4344618055556 1.9265625  C 27.3537326388889 1.8421875  27.2505787037037 1.8  27.125 2  L 2.15277777777778 2  C 2.02719907407407 1.8  1.92404513888889 1.8421875  1.84331597222222 1.9265625  C 1.76258680555556 2.0109375  1.72222222222222 2.11875  2 2.25  L 2 15.75  C 1.72222222222222 15.88125  1.76258680555556 15.9890625  1.84331597222222 16.0734375  C 1.92404513888889 16.1578125  2.02719907407407 16.2  2.15277777777778 16  L 27.125 16  C 27.2505787037037 16.2  27.3537326388889 16.1578125  27.4344618055556 16.0734375  C 27.5151909722222 15.9890625  27.5555555555556 15.88125  27.5555555555556 15.75  Z M 30.4954427083333 5.02734375  C 30.8318142361111 5.37890625  31 5.803125  31 6.3  L 31 11.7  C 31 12.196875  30.8318142361111 12.62109375  30.4954427083333 12.97265625  C 30.1590711805556 13.32421875  29.7531828703704 13.5  29.2777777777778 13.5  L 29.2777777777778 15.75  C 29.2777777777778 16.36875  29.0669849537037 16.8984375  28.6453993055556 17.3390625  C 28.2238136574074 17.7796875  27.7170138888889 18  27.125 18  L 2.15277777777778 18  C 1.56076388888889 18  1.05396412037037 17.7796875  0.632378472222222 17.3390625  C 0.210792824074074 16.8984375  0 16.36875  0 15.75  L 0 2.25  C 0 1.63125  0.210792824074074 1.1015625  0.632378472222222 0.6609375  C 1.05396412037037 0.220312499999997  1.56076388888889 0  2.15277777777778 0  L 27.125 0  C 27.7170138888889 0  28.2238136574074 0.220312499999997  28.6453993055556 0.6609375  C 29.0669849537037 1.1015625  29.2777777777778 1.63125  29.2777777777778 2.25  L 29.2777777777778 4.5  C 29.7531828703704 4.5  30.1590711805556 4.67578125  30.4954427083333 5.02734375  Z " fill-rule="nonzero" fill="#000000" stroke="none" transform="matrix(1 0 0 1 435 1062 )" />
  </g>
</svg>